<?xml version="1.0" standalone="no"?>
<!DOCTYPE svg PUBLIC "-//W3C//DTD SVG 20010904//EN"
 "http://www.w3.org/TR/2001/REC-SVG-20010904/DTD/svg10.dtd">
<svg version="1.0" xmlns="http://www.w3.org/2000/svg"
 width="227.000000pt" height="227.000000pt" viewBox="0 0 227.000000 227.000000"
 preserveAspectRatio="xMidYMid meet">
<metadata>
Created by potrace 1.11, written by Peter Selinger 2001-2013
</metadata>
<g transform="translate(0.000000,227.000000) scale(0.100000,-0.100000)"
fill="#000000" stroke="none">
<path d="M781 1696 c-64 -33 -84 -67 -86 -144 -2 -54 4 -81 28 -142 17 -41 33
-77 36 -80 3 -3 44 -84 91 -180 94 -194 121 -237 156 -250 31 -12 94 11 113
42 19 31 15 135 -10 246 -5 25 -7 47 -5 50 3 2 1 12 -3 21 -5 9 -11 34 -15 56
-3 22 -7 50 -10 61 -2 12 -7 38 -10 59 -4 20 -8 40 -11 44 -2 4 -6 19 -9 33
-14 78 -95 195 -139 199 -59 7 -91 3 -126 -15z"/>
<path d="M1377 1699 c-19 -10 -49 -35 -66 -56 -30 -36 -69 -138 -77 -198 -2
-16 -10 -70 -19 -120 -8 -49 -17 -107 -21 -129 -3 -21 -8 -48 -10 -60 -3 -11
-7 -41 -10 -66 -2 -24 -9 -49 -13 -53 -11 -11 5 -65 27 -89 8 -10 29 -22 48
-28 38 -13 64 -3 102 38 34 36 234 441 247 501 2 9 8 30 12 46 20 70 -8 164
-59 197 -53 34 -114 41 -161 17z"/>
<path d="M323 1340 c-61 -38 -94 -99 -88 -163 6 -68 81 -147 200 -212 28 -15
86 -47 130 -72 217 -119 296 -146 342 -116 29 19 52 72 46 105 -8 41 -385 409
-454 444 -67 33 -136 39 -176 14z"/>
<path d="M1850 1351 c-72 -22 -87 -35 -322 -267 -121 -120 -179 -184 -183
-204 -12 -54 36 -113 95 -116 35 -2 139 45 295 131 28 15 75 41 105 58 164 90
230 160 230 248 0 43 -42 112 -84 138 -34 21 -89 26 -136 12z"/>
<path d="M170 808 c-68 -19 -122 -90 -122 -163 0 -80 57 -146 140 -162 56 -11
261 -1 284 13 4 3 30 7 56 9 63 4 137 14 192 27 25 6 55 12 68 13 52 7 100 63
97 111 -3 27 -33 72 -53 78 -22 7 -165 34 -217 41 -22 3 -56 8 -75 11 -19 3
-54 8 -78 10 -23 2 -48 6 -54 10 -18 11 -199 13 -238 2z"/>
<path d="M1920 808 c-19 -4 -55 -10 -80 -13 -25 -2 -56 -7 -70 -10 -13 -2 -51
-7 -84 -10 -33 -4 -63 -8 -67 -11 -4 -2 -30 -6 -58 -9 -70 -6 -117 -28 -135
-64 -20 -38 -20 -54 -1 -91 16 -30 40 -48 78 -56 54 -12 185 -35 227 -39 25
-2 56 -7 70 -10 25 -5 55 -8 180 -21 36 -3 68 -8 72 -10 4 -3 9 0 13 6 3 5 16
10 27 10 12 0 41 9 64 21 121 58 119 231 -4 290 -50 24 -163 33 -232 17z"/>
</g>
</svg>
